HIERARCHY
ROOT Hips
{
	OFFSET -14.64140 90.27770 -84.91600
	CHANNELS 6 Xposition Yposition Zposition Zrotation Xrotation Yrotation
	JOINT Spine
	{
		OFFSET 0.00000 13.20850 -1.60436
		CHANNELS 3 Zrotation Xrotation Yrotation
		JOINT Spine1
		{
			OFFSET 0.00000 8.61716 0.00000
			CHANNELS 3 Zrotation Xrotation Yrotation
			JOINT Spine2
			{
				OFFSET 0.00000 8.61717 0.00000
				CHANNELS 3 Zrotation Xrotation Yrotation
				JOINT Spine3
				{
					OFFSET 0.00000 8.61717 0.00000
					CHANNELS 3 Zrotation Xrotation Yrotation
					JOINT Neck
					{
						OFFSET 0.00000 11.07920 1.10792
						CHANNELS 3 Zrotation Xrotation Yrotation
						JOINT Neck1
						{
							OFFSET 0.00000 7.08032 0.00000
							CHANNELS 3 Zrotation Xrotation Yrotation
							JOINT Head
							{
								OFFSET 0.00000 7.08031 0.00000
								CHANNELS 3 Zrotation Xrotation Yrotation
								End site
								{
									OFFSET 0.00000 0.00000 0.00000
								}
							}
						}
					}
					JOINT RightShoulder
					{
						OFFSET -0.01000 7.91373 5.19711
						CHANNELS 3 Zrotation Xrotation Yrotation
						JOINT RightArm
						{
							OFFSET -18.41580 0.00000 0.00000
							CHANNELS 3 Zrotation Xrotation Yrotation
							JOINT RightForeArm
							{
								OFFSET -29.11090 0.00000 0.00000
								CHANNELS 3 Zrotation Xrotation Yrotation
								JOINT RightHand
								{
									OFFSET -24.65040 0.00000 0.00000
									CHANNELS 3 Zrotation Xrotation Yrotation
									JOINT RightHandThumb1
									{
										OFFSET -5.35114 -0.85590 3.97906
										CHANNELS 3 Zrotation Xrotation Yrotation
										JOINT RightHandThumb2
										{
											OFFSET -4.52789 0.00000 0.00000
											CHANNELS 3 Zrotation Xrotation Yrotation
											JOINT RightHandThumb3
											{
												OFFSET -2.46976 0.00000 0.00000
												CHANNELS 3 Zrotation Xrotation Yrotation
												End site
												{
													OFFSET 0.00000 0.00000 0.00000
												}
											}
										}
									}
									JOINT RightHandIndex1
									{
										OFFSET -14.26970 0.00000 2.88139
										CHANNELS 3 Zrotation Xrotation Yrotation
										JOINT RightHandIndex2
										{
											OFFSET -5.48836 0.00000 0.00000
											CHANNELS 3 Zrotation Xrotation Yrotation
											JOINT RightHandIndex3
											{
												OFFSET -3.01859 0.00000 0.00000
												CHANNELS 3 Zrotation Xrotation Yrotation
												End site
												{
													OFFSET 0.00000 0.00000 0.00000
												}
											}
										}
									}
									JOINT RightHandMiddle1
									{
										OFFSET -14.26970 0.00000 -0.09147
										CHANNELS 3 Zrotation Xrotation Yrotation
										JOINT RightHandMiddle2
										{
											OFFSET -6.17441 0.00000 0.00000
											CHANNELS 3 Zrotation Xrotation Yrotation
											JOINT RightHandMiddle3
											{
												OFFSET -3.56743 0.00000 0.00000
												CHANNELS 3 Zrotation Xrotation Yrotation
												End site
												{
													OFFSET 0.00000 0.00000 0.00000
												}
											}
										}
									}
									JOINT RightHandRing1
									{
										OFFSET -12.69180 0.00000 -3.06433
										CHANNELS 3 Zrotation Xrotation Yrotation
										JOINT RightHandRing2
										{
											OFFSET -5.62556 0.00000 0.00000
											CHANNELS 3 Zrotation Xrotation Yrotation
											JOINT RightHandRing3
											{
												OFFSET -3.56744 0.00000 0.00000
												CHANNELS 3 Zrotation Xrotation Yrotation
												End site
												{
													OFFSET 0.00000 0.00000 0.00000
												}
											}
										}
									}
									JOINT RightHandPinky1
									{
										OFFSET -11.11390 0.00000 -6.03719
										CHANNELS 3 Zrotation Xrotation Yrotation
										JOINT RightHandPinky2
										{
											OFFSET -4.52789 0.00000 0.00000
											CHANNELS 3 Zrotation Xrotation Yrotation
											JOINT RightHandPinky3
											{
												OFFSET -2.46976 0.00000 0.00000
												CHANNELS 3 Zrotation Xrotation Yrotation
												End site
												{
													OFFSET 0.00000 0.00000 0.00000
												}
											}
										}
									}
								}
							}
						}
					}
					JOINT LeftShoulder
					{
						OFFSET 0.01000 7.91373 5.19711
						CHANNELS 3 Zrotation Xrotation Yrotation
						JOINT LeftArm
						{
							OFFSET 18.41580 0.00000 0.00000
							CHANNELS 3 Zrotation Xrotation Yrotation
							JOINT LeftForeArm
							{
								OFFSET 29.11090 0.00000 0.00000
								CHANNELS 3 Zrotation Xrotation Yrotation
								JOINT LeftHand
								{
									OFFSET 24.65040 0.00000 0.00000
									CHANNELS 3 Zrotation Xrotation Yrotation
									JOINT LeftHandThumb1
									{
										OFFSET 5.35114 -0.85590 3.97906
										CHANNELS 3 Zrotation Xrotation Yrotation
										JOINT LeftHandThumb2
										{
											OFFSET 4.52789 0.00000 0.00000
											CHANNELS 3 Zrotation Xrotation Yrotation
											JOINT LeftHandThumb3
											{
												OFFSET 2.46977 0.00000 0.00000
												CHANNELS 3 Zrotation Xrotation Yrotation
												End site
												{
													OFFSET 0.00000 0.00000 0.00000
												}
											}
										}
									}
									JOINT LeftHandIndex1
									{
										OFFSET 14.26970 0.00000 2.88139
										CHANNELS 3 Zrotation Xrotation Yrotation
										JOINT LeftHandIndex2
										{
											OFFSET 5.48836 0.00000 0.00000
											CHANNELS 3 Zrotation Xrotation Yrotation
											JOINT LeftHandIndex3
											{
												OFFSET 3.01859 0.00000 0.00000
												CHANNELS 3 Zrotation Xrotation Yrotation
												End site
												{
													OFFSET 0.00000 0.00000 0.00000
												}
											}
										}
									}
									JOINT LeftHandMiddle1
									{
										OFFSET 14.26970 0.00000 -0.09147
										CHANNELS 3 Zrotation Xrotation Yrotation
										JOINT LeftHandMiddle2
										{
											OFFSET 6.17440 0.00000 0.00000
											CHANNELS 3 Zrotation Xrotation Yrotation
											JOINT LeftHandMiddle3
											{
												OFFSET 3.56744 0.00000 0.00000
												CHANNELS 3 Zrotation Xrotation Yrotation
												End site
												{
													OFFSET 0.00000 0.00000 0.00000
												}
											}
										}
									}
									JOINT LeftHandRing1
									{
										OFFSET 12.69180 0.00000 -3.06433
										CHANNELS 3 Zrotation Xrotation Yrotation
										JOINT LeftHandRing2
										{
											OFFSET 5.62556 0.00000 0.00000
											CHANNELS 3 Zrotation Xrotation Yrotation
											JOINT LeftHandRing3
											{
												OFFSET 3.56744 0.00000 0.00000
												CHANNELS 3 Zrotation Xrotation Yrotation
												End site
												{
													OFFSET 0.00000 0.00000 0.00000
												}
											}
										}
									}
									JOINT LeftHandPinky1
									{
										OFFSET 11.11390 0.00000 -6.03719
										CHANNELS 3 Zrotation Xrotation Yrotation
										JOINT LeftHandPinky2
										{
											OFFSET 4.52789 0.00000 0.00000
											CHANNELS 3 Zrotation Xrotation Yrotation
											JOINT LeftHandPinky3
											{
												OFFSET 2.46976 0.00000 0.00000
												CHANNELS 3 Zrotation Xrotation Yrotation
												End site
												{
													OFFSET 0.00000 0.00000 0.00000
												}
											}
										}
									}
								}
							}
						}
					}
					JOINT pCube4
					{
						OFFSET 0.00000 10.91090 1.10792
						CHANNELS 3 Zrotation Xrotation Yrotation
						End site
						{
							OFFSET 0.00000 0.00000 0.00000
						}
					}
				}
			}
		}
	}
	JOINT RightUpLeg
	{
		OFFSET -9.98441 0.00000 0.00000
		CHANNELS 3 Zrotation Xrotation Yrotation
		JOINT RightLeg
		{
			OFFSET 0.00000 -42.11790 0.00000
			CHANNELS 3 Zrotation Xrotation Yrotation
			JOINT RightFoot
			{
				OFFSET 0.00000 -45.00020 -0.00001
				CHANNELS 3 Zrotation Xrotation Yrotation
				JOINT RightForeFoot
				{
					OFFSET 0.00000 -3.74820 0.00000
					CHANNELS 3 Zrotation Xrotation Yrotation
					JOINT RightToeBase
					{
						OFFSET 0.00000 0.06325 14.43120
						CHANNELS 3 Zrotation Xrotation Yrotation
						End site
						{
							OFFSET 0.00000 0.00000 0.00000
						}
					}
				}
			}
		}
	}
	JOINT LeftUpLeg
	{
		OFFSET 9.98441 0.00000 0.00000
		CHANNELS 3 Zrotation Xrotation Yrotation
		JOINT LeftLeg
		{
			OFFSET 0.00000 -42.11800 0.00000
			CHANNELS 3 Zrotation Xrotation Yrotation
			JOINT LeftFoot
			{
				OFFSET 0.00000 -45.00070 0.00000
				CHANNELS 3 Zrotation Xrotation Yrotation
				JOINT LeftForeFoot
				{
					OFFSET 0.00000 -3.74824 0.00000
					CHANNELS 3 Zrotation Xrotation Yrotation
					JOINT LeftToeBase
					{
						OFFSET 0.00000 0.06325 14.43110
						CHANNELS 3 Zrotation Xrotation Yrotation
						End site
						{
							OFFSET 0.00000 0.00000 0.00000
						}
					}
				}
			}
		}
	}
}
MOTION
Frames: 4
Frame Time: 0.050000
-0.017098901378761577 0.03282640434708802 0.044280138008952474 0.0008982287119909257 0.02707690710048985 -0.022756108973257638 -3.194543233392729 0.4283746296306363 -0.7013033589504056 -1.1268993833530887 3.826441675541468 0.38897730788710355 -1.3261522877561573 -2.079534610215112 -1.0181959976987414 -0.4587464524558537 0.5510404285953221 -0.8003764225542976 -0.5185237449204837 13.294601488666885 2.355422673295065 0.4212441554707266 0.21564985003692047 4.336713276403876 -0.09065141420797096 -14.66618605905604 0.31868180446574623 -4.939792792268693 1.7766683497064022 -15.338676059439422 73.30591186688288 19.850901148808248 -0.9652366183913332 2.734276283725375 2.367447322634863 42.113885343060524 23.26739833735992 -0.21205724327448014 -4.223197613682687 4.5317769126688905 -0.11205807447479998 -1.5796048450438511 0.027473116652931694 -0.006861930851271824 -56.24958289200767 -0.008821760926984265 -0.03972644259785888 -56.20534521972075 -38.76211617648802 -0.02859533114673074 0.036147107640301844 0.004084435235249511 -0.009164923379672976 -0.0017564211438991027 -0.00020992313632613096 -0.04525993885738763 -0.013504512390551573 -36.72044191165355 -0.012391081505516544 0.029321069153456267 0.0020712422439472518 0.024548233036831794 0.03043490660415513 0.038780839485727296 0.0388262662445502 -0.010348593202204796 -19.7661111846321 0.03289393365508852 0.01301793636957247 0.04768539777681548 0.024636676346156555 0.031382970533658384 -0.03728305132167343 -0.04898863090066812 0.0054137404996882936 24.06387646028425 0.039188571864391814 -0.0254657136482777 28.9006193320604 -0.007943229776241971 -0.0032014984047735763 28.85479833028 0.029287276666212215 -0.0195082805887438 6.256447089087928 1.414529776320177 13.851049929308017 -72.55856526725262 25.448041651822912 -4.058545332742604 -0.7717398353563304 -11.163691320217618 -42.3994845100242 -9.482927440741628 -0.27274922488223463 3.08785770376049 -0.43378933203590475 0.08985646667962524 -8.099692091075845 -0.027007899756479044 0.007379234188175134 44.565303836520826 0.04192086733598473 0.03664707816222957 44.58302299118623 12.448554654391206 -0.012966427803136149 0.00964608972910202 -0.008883620184218835 0.015234457200353114 0.003508412842284693 0.03723774411386749 0.0034906049610686925 -0.003356913659666944 11.066243472075747 0.0029715572323305768 0.013296477465872748 0.027983845951785376 0.02964542885236154 0.049286941968338535 -0.0498297108129501 -0.030464380697974955 -0.028525892343088385 4.812804254616772 -0.04305875370612775 -0.03723126254577941 0.018499731314050343 0.04422850370193776 0.01842434486420609 0.007098222838022641 0.023460618167885923 -0.023514072942416052 -5.6302774463375 -0.029140798916285154 0.022546407639640276 -6.68496404368086 -0.03944698620666741 0.009447451227343301 -6.753966762566629 -0.019781287755423125 0.04871039541503261 -0.04155254948154932 -0.036632405241522566 0.01431032204295349 8.019421980058764 3.5149614404647678 -19.202406673577332 -0.005510245626367366 10.364280261411494 -0.013658269096248715 -5.594370576291451 -15.65817886631564 3.2205794267907484 0.0214870663357677 -0.038260231033963345 -0.04786837247433901 -0.036157733816322306 4.648380827386466 0.018343465915503974 12.445803984824188 -8.194965869204657 6.881176746256737 -0.031549948504920745 46.389930002433296 -0.006722497731652765 -4.293985283812429 -14.719597521006692 -3.7920676539713876 0.03173930051566642 -0.010005598667814235 0.04392569840545712 -0.020279538292013646 -10.714246374779409 0.017936255114132337 
-0.012786664221495467 0.021106307180576957 0.013807586785218887 -0.01970094837066698 -0.01478959442893426 -0.007798319866861474 -3.149921304799922 0.46049753939855687 -0.7576245830890876 -1.1343047243348792 3.781311010521282 0.4026475764424344 -1.275816921023203 -2.096813746624744 -1.120611365251205 -0.41080553314261614 0.5448852553306118 -0.8383907766225843 -0.6552729161978695 13.440638614324186 2.518857627699508 0.3940133476775779 0.16120614994078514 4.635991195505112 -0.23293483114732805 -14.813859573775169 0.3855988662669851 -5.106033282885246 1.8333116511203678 -15.211412826155389 72.65909943104342 20.076874441128552 -0.471456136808418 2.490052581417394 1.9444860973278781 42.829516890297064 22.885547993019674 -0.16259683844355435 -4.228081848385575 4.555337630977701 -0.14909383113320346 -1.5528645100188934 0.015251511667720204 0.010165862212613477 -56.22490236150634 -0.03173347107284266 0.0431694871273125 -56.204471574491116 -38.78548081280957 0.02292394569845369 0.013448515209198729 0.029158986774039945 0.004238419768840508 0.04888090918453981 0.03272804334119378 0.02271998524944351 -0.03482384578907018 -36.68099092492522 0.041049248366133044 0.030015693812488916 0.00016660061339193266 -0.013971480162545674 -0.039346561112554024 0.030857485195925616 -0.030521166864484927 0.0322940575712451 -19.77510813683678 -0.029437700890764296 -0.041471922964054934 -0.030154134430050786 -0.0013110400412130532 0.03296106235820646 -0.0003915545447952889 0.039363518748414934 0.005209347924168622 24.040667519995687 -0.03745509960158866 0.026481817459614344 28.913856971907084 -0.045380677952545266 -0.03347304972320415 28.887421362832608 -0.03288900900305699 0.01580868588777751 6.666055937030245 1.5042529836164265 13.747148303120303 -72.15174882851225 24.21736976777387 -5.658871667673454 -0.46463660069442103 -11.733719590316348 -43.34524451382398 -8.384643077881574 0.08178635552998414 2.8177163959369556 -0.47034053923944313 0.10471694258524561 -8.14955918853497 0.033057141297271164 -0.02821925312237663 44.560569567104274 0.016591821647103478 -0.0005695737275091748 44.57953935399953 12.488006561787744 -0.00035011691546937097 0.014180878672008224 -0.01981135734945333 -0.009546657722696283 -0.022408749530358853 0.007054917542785113 0.009508817480484606 -0.0007003487247760073 11.119472532277099 0.007807279703289492 0.008471355686498833 0.04488576258197263 0.028360959726549857 0.04805842051586586 0.016504966620453226 -0.012767310460806687 0.002575438069651763 4.770940785748677 -0.013916523413439604 -0.020952814150863877 0.025477806774053056 0.049405635137719985 0.023558124870919378 0.01996987335042141 0.03793723255996237 0.0261726149381471 -5.620234116493479 0.033532716052322345 -0.0417217708738049 -6.71797757559631 0.008538878575422211 -0.029221116365866762 -6.735305136542227 0.04167630825599617 0.02485725450278119 0.0010826501772366493 0.01654319989443062 -0.03247111858258354 8.045735043991403 3.4928529050272696 -19.240497810455338 0.030402143262121643 10.411416142578929 0.020050340057653448 -5.640970258489597 -15.696492426277388 3.1478857442288706 -0.024582741374582703 0.0029667625874644625 -0.04548339761667042 0.042792329809874755 4.686012735015281 -0.028277627885849407 12.437533372078946 -8.203708514293348 6.8638914813770056 0.020059422102483904 46.41572583564087 0.04321923850685784 -4.320531338448118 -14.735860560016606 -3.7999353940003697 0.04763981554350044 0.019564963048078372 -0.04486198506287865 -0.028300682645956244 -10.75471848739343 -0.00912572152712096 
-0.023467387375062924 0.02350702039764416 -0.006343942256339704 0.04824970388923083 -0.007805225627013725 -0.024311467507803084 -3.139442740106598 0.5578731365920546 -0.668702178914745 -1.1198557449438575 3.8478536612406966 0.3802059450070971 -1.290751319515499 -2.0957823159723965 -1.3108908743171457 -0.4391615666339581 0.554302714625386 -0.8563107713155599 -0.8265602383292152 13.710424611242114 2.9316215840632918 0.33876943136462534 0.13216146059575515 5.855511417921963 -0.3923076102913263 -14.83544300894119 0.4877567893031942 -5.283999690137005 1.8344225495860766 -15.066277235617452 71.7052423428235 20.04872882136922 -0.4173705707567746 2.2269797357818013 1.2925799017740593 43.3469750728213 22.576280276061194 -0.20100426249489087 -4.238678593122768 4.500273317527617 -0.17198059177559724 -1.5728887682999615 -0.004203437831391973 0.00038176206701595806 -56.217196583322895 -0.04998944804874857 -0.032190172023835915 -56.26694532479406 -38.746150424103924 -0.03538820699274774 0.029421556600869016 0.04715326251120851 0.008194865605758876 0.0054635746541394905 -0.025584888481648083 0.04414249130774869 -0.04873134495463768 -36.725327303196714 -0.029253931009258556 -0.03400929465393623 0.011437648434812939 0.004090205615109512 -0.013831033033309828 -0.03230201063932962 -0.03892751150649727 0.03217159269661719 -19.728518376357247 0.028653574201205973 -0.018594211338679254 0.029492347873906713 0.030518258754937456 -0.017893174180400883 -0.010201343736712163 0.031169434026917384 0.042052529849898705 24.06073748766367 0.04580619655099017 -0.028867862883973344 28.842606705466405 -0.02601370503755602 0.014050339171714218 28.855654423653156 -0.043027915836277256 0.014780292872379336 7.3925563131780985 1.5489845363482118 13.71943288956695 -71.63813636573673 22.914662806015222 -7.632387838186687 0.2660086714404402 -12.575054347746065 -44.34381672238905 -7.300473287903245 0.43596780576123595 2.675894843000605 -0.5036549363598918 0.06972531815564802 -8.123186561771332 -0.0019369762271498293 -0.04892182795523864 44.60724298387255 0.044791977059558896 0.003363275047638718 44.53955946588101 12.488000713697703 -0.03597987663464542 0.005457327603649643 0.021051316939162013 -0.03517177277257147 0.03489336633627634 -0.025157025106781392 -0.027505399880261888 0.023408756869555798 11.145087391233673 0.043220381704564645 -0.04588776367722326 0.026458925709648147 0.028130722603530202 -0.041161921436037086 0.03554928238130054 -0.026401353473496376 0.027398340690779233 4.794722820037282 0.049195668112992856 -0.02643074212457279 0.008448773482548607 -0.008289964295892906 0.03663995262559975 0.016671258119602912 0.026184888938127104 0.0046784329353499726 -5.631805201419373 0.04105709801479411 -0.005213338693806566 -6.686159751452827 -0.004870207519615022 0.04608388341825929 -6.751662432881576 0.014034574297144834 -0.04796091224235342 -0.04898081816773789 0.032927756059351034 -0.02476423476184136 8.083848975274341 3.5072178054349235 -19.26426395788145 0.0007085681230313677 10.367695810916231 0.007429830860777944 -5.607870438381667 -15.669120235209537 3.218453880987275 -0.014163494665697616 -0.019783811849196743 -0.0498938561123139 0.015883234619789657 4.701452088750868 0.02303119518859324 12.485881874495867 -8.233423958945439 6.929486987184153 -0.00863733168451669 46.38249108809454 -0.013639208823194325 -4.286892350882151 -14.769338960860146 -3.825568093749013 0.02570635877294278 -0.04833169772287631 0.005846767251319099 0.006939203499642921 -10.768040243644913 -0.04108002074484404 
0.037076040055900115 -0.04549167873666071 0.026544692765770962 0.012519455427732999 -0.012777061774931119 0.03286160921947359 -3.1325066748479085 0.5487193143284765 -0.6992231235009282 -1.1895350102453435 3.858846966925394 0.3901545629305372 -1.287954037150923 -2.1724376974637374 -1.4417870938058766 -0.5312253735742538 0.617376732731092 -0.8247557264912144 -1.031594394597454 13.970561166278587 3.4516070537170456 0.2904138303384953 0.31745772748965756 7.095329212087351 -0.6127042517756353 -14.653506625494616 0.5608738954945283 -5.584498888737768 1.9766294617817297 -14.972797640343847 70.66175785954958 20.06818623399436 0.029118695180118937 2.3745219958645456 0.8082040953684566 44.46733018227574 22.406080695362807 -0.204484057057055 -4.327924570093286 4.5775278121124385 -0.14352505289651812 -1.5544275569464723 0.009410493601773168 -0.026528004830254068 -56.2328652372252 -0.049680066630595245 0.0422923565497712 -56.20042966984863 -38.73746885436001 -0.007123765840997786 0.0011010927321500133 0.011076774534798273 0.0011138307236711132 -0.0016558716394351393 -0.01042285329217234 0.03184056241299452 -0.027120270804250914 -36.67131748431712 -0.0032116401396874855 0.005507490766892308 0.017092142406284636 -0.028618223846396423 -0.017927398799168402 0.0039182622035090564 0.046053206128219656 0.024621530602510367 -19.769781488362202 -0.007804440916610349 -0.025396699063263365 0.0358971297198429 0.04614701378296927 -0.005997743039650834 0.005622631484178779 0.040689730411298766 -0.047638655822498654 24.09443294997243 0.014723908584923236 -0.015526217206178292 28.85539062084997 -0.04040584273073639 0.04450136822577565 28.89186805325307 0.005288567242637538 -0.03677993178024739 8.221462783455939 1.7566995524305584 13.678848708801722 -70.88052406667761 20.917792285563667 -10.20945118196971 0.6899104055199878 -13.18695300149583 -46.20622966165815 -6.086483436674238 0.7984064211586943 2.375389489687837 -0.4630064213507584 0.042366334409312124 -8.122579310936999 0.029003041601708364 -0.04725812043135506 44.56105117736459 0.007339040771335306 0.006036415672076526 44.601926691442415 12.438412265372891 -0.027531918289393498 0.013346457677093254 0.02302293913179671 0.02155337774766109 0.023043124240323766 -0.027398848244118108 0.01764225515668378 0.01575902185500783 11.14660748693039 0.006864419971446721 -0.0416907646243513 0.008975464496584795 0.008140017378043386 0.040864952654999454 -0.045709687235161535 -0.011580802487503946 0.049570306457711134 4.821452102139747 -0.02531140634844457 0.02488910726517229 -0.010226799398521844 -0.005422057616430907 0.01474311678931251 -6.917419249715199e-05 0.012659532091935776 -0.0355609565356688 -5.637503068708377 0.0318924277803086 -0.020068728689428102 -6.725614650332952 -0.02468798953031334 -0.04876111566418325 -6.738675628764473 -0.019819311998987874 -0.004955359757777967 -0.04841363057652165 0.00011419032153030229 -0.02205061517699723 8.06367185973354 3.464508535022696 -19.175893443078262 -0.017295992212782184 10.384002706771366 -8.374312304441217e-06 -5.5764158052055794 -15.64307185586049 3.23580835965269 -0.04389820191653237 0.03224245283997841 -0.04494454183301033 -0.03867232978203882 4.687600349789537 -0.025508678571650397 12.501227911123573 -8.277508552570575 6.92015176327002 0.020757712016415363 46.33380847605026 -0.013407150930831759 -4.305843751654577 -14.706498116760068 -3.8255574592113746 -0.04831870423076083 0.002041295050035797 -0.01890391007826276 -0.03083462135297362 -10.697862700873364 -0.012168223574338305 
